<svg width="1647" height="602" viewBox="0 0 1647 602" fill="none" xmlns="http://www.w3.org/2000/svg">
<path d="M1240.26 14.1213C1405.5 18.64 1564.19 84.7256 1645.95 129.912C1648.1 139.327 1645.95 324.913 1645.95 449.177C1638.21 573.441 1507.18 593.21 1442.63 587.562C1079.01 588.503 317.572 589.821 180.732 587.562C43.8925 585.303 3.22778 498.13 0.000366211 454.826V0C68.8507 29.1829 269.473 223.675 517.334 214.638C827.16 203.341 1033.71 8.47299 1240.26 14.1213Z" fill="#67D2D0"/>
<path d="M406.647 20.5838C241.407 25.1221 81.7597 89.9801 0 135.363C0 142.883 0 522.65 0.00122536 601.611H203.043H1473.95H1646.91V6.40112C1578.06 35.7108 1377.44 231.048 1129.58 221.971C819.749 210.626 613.198 14.9109 406.647 20.5838Z" fill="#94A4B3"/>
</svg>
