<svg width="1253" height="455" viewBox="0 0 1253 455" fill="none" xmlns="http://www.w3.org/2000/svg">
<path d="M943.615 10.7441C1069.33 14.182 1190.07 64.4612 1252.27 98.8402C1253.91 106.003 1252.27 247.201 1252.27 341.743C1246.38 436.285 1146.69 451.326 1097.58 447.029C820.934 447.745 241.615 448.748 137.505 447.029C33.394 445.31 2.45557 378.987 0.00012207 346.041V0.000305176C52.3827 22.2032 205.02 170.177 393.597 163.301C629.319 154.706 786.467 6.44672 943.615 10.7441Z" fill="#86E5FB"/>
<path d="M309.385 15.6603C183.667 19.1132 62.2044 69.4716 0 104V455C56.2725 455 99.5 454.794 154.782 454.794C431.5 455 1018.38 455 1122.5 455H1253V4.86987C1200.62 27.1693 1047.98 175.786 859.403 168.88C623.681 160.248 466.533 11.3443 309.385 15.6603Z" fill="#1C5A7D"/>
</svg>
