<svg width="2969" height="1078" viewBox="0 0 2969 1078" fill="none" xmlns="http://www.w3.org/2000/svg">
<path d="M2235.74 25.4443C2533.48 33.5862 2819.41 152.661 2966.73 234.08C2970.6 251.043 2966.73 585.439 2966.73 809.341C2952.77 1033.24 2716.68 1068.86 2600.37 1058.69C1945.2 1060.38 573.211 1062.76 326.649 1058.69C80.0867 1054.62 6.81567 897.545 1.00049 819.519V0C125.057 52.5827 486.544 403.025 933.148 386.741C1491.4 366.386 1863.57 15.2669 2235.74 25.4443Z" fill="#F8988F"/>
<path d="M733.709 37.0885C435.973 45.2658 150.04 164.858 2.72297 246.631C-1.1538 263.667 0.99989 853.125 0.99989 1078H367.5H2660H2968V11.5C2843.94 64.3111 2482.91 416.309 2036.3 399.955C1478.05 379.512 1105.88 26.8669 733.709 37.0885Z" fill="#2F4858"/>
</svg>
