<svg width="4318" height="678" viewBox="0 0 4318 678" fill="none" xmlns="http://www.w3.org/2000/svg">
<path d="M0 0V548.956C40.5605 540.183 175.424 538.804 390.395 603.476C1226.95 819.674 1159.35 500.077 1673.12 466.237C2186.89 432.397 2460.67 751.995 3070.77 449.317C3558.84 207.175 4105.62 303.305 4318 381.637V0H0Z" fill="#5C96CC"/>
<path d="M0 0V548.956C40.5605 540.183 175.424 538.804 390.395 603.476C1226.95 819.674 1159.35 500.077 1673.12 466.237C2186.89 432.397 2460.67 751.995 3070.77 449.317C3558.84 207.175 4105.62 303.305 4318 381.637V0H0Z" fill="black" fill-opacity="0.2"/>
</svg>
